<mxfile host="Electron" modified="2023-08-16T22:29:35.313Z" agent="Mozilla/5.0 (Windows NT 10.0; Win64; x64) AppleWebKit/537.36 (KHTML, like Gecko) draw.io/21.6.8 Chrome/114.0.5735.289 Electron/25.5.0 Safari/537.36" etag="OUsFjs_CF_FZbHWOA0Y5" version="21.6.8" type="device">
  <diagram name="Page-1" id="74e2e168-ea6b-b213-b513-2b3c1d86103e">
    <mxGraphModel dx="1098" dy="2312" grid="1" gridSize="10" guides="1" tooltips="1" connect="1" arrows="1" fold="1" page="1" pageScale="1" pageWidth="2336" pageHeight="1654" background="#FFFFCC" math="0" shadow="0">
      <root>
        <mxCell id="0" />
        <mxCell id="1" parent="0" />
        <mxCell id="57izBxOjl_in-iJPN2Te-3" value="&lt;h4 style=&quot;&quot;&gt;&amp;nbsp;Realizar un algoritmo que dado un número entero, visualice en pantalla si es par o impar.&amp;nbsp;&lt;br&gt;&lt;span style=&quot;font-size: 18px;&quot;&gt;En el caso de ser 0, debe visualizar “el número no es par ni impar” (para que un numero sea par,&amp;nbsp;&lt;br&gt;&lt;/span&gt;&lt;span style=&quot;font-size: 18px;&quot;&gt;se debe dividir entre dos y que su resto sea 0)&lt;/span&gt;&lt;/h4&gt;" style="text;html=1;strokeColor=none;fillColor=none;align=left;verticalAlign=middle;whiteSpace=wrap;rounded=1;fontSize=18;fontFamily=Helvetica;sketch=1;curveFitting=1;jiggle=2;" parent="1" vertex="1">
          <mxGeometry x="50" y="40" width="1340" height="30" as="geometry" />
        </mxCell>
        <mxCell id="57izBxOjl_in-iJPN2Te-5" value="&lt;font style=&quot;font-size: 20px;&quot;&gt;Inicio&lt;/font&gt;" style="ellipse;whiteSpace=wrap;html=1;" parent="1" vertex="1">
          <mxGeometry x="640" y="140" width="120" height="80" as="geometry" />
        </mxCell>
        <mxCell id="57izBxOjl_in-iJPN2Te-6" value="&lt;font style=&quot;font-size: 15px;&quot;&gt;Ingrese el numero&lt;/font&gt;" style="shape=parallelogram;perimeter=parallelogramPerimeter;whiteSpace=wrap;html=1;fixedSize=1;" parent="1" vertex="1">
          <mxGeometry x="610" y="260" width="180" height="60" as="geometry" />
        </mxCell>
        <mxCell id="57izBxOjl_in-iJPN2Te-12" value="" style="endArrow=classic;html=1;rounded=0;entryX=0.5;entryY=0;entryDx=0;entryDy=0;exitX=0.5;exitY=1;exitDx=0;exitDy=0;" parent="1" source="57izBxOjl_in-iJPN2Te-5" target="57izBxOjl_in-iJPN2Te-6" edge="1">
          <mxGeometry width="50" height="50" relative="1" as="geometry">
            <mxPoint x="700" y="630" as="sourcePoint" />
            <mxPoint x="750" y="580" as="targetPoint" />
          </mxGeometry>
        </mxCell>
        <mxCell id="57izBxOjl_in-iJPN2Te-14" value="" style="endArrow=classic;html=1;rounded=0;exitX=0.5;exitY=1;exitDx=0;exitDy=0;entryX=0.5;entryY=0;entryDx=0;entryDy=0;" parent="1" source="57izBxOjl_in-iJPN2Te-6" target="l9UlPoGd8hxk52ZTFXW5-24" edge="1">
          <mxGeometry width="50" height="50" relative="1" as="geometry">
            <mxPoint x="700" y="630" as="sourcePoint" />
            <mxPoint x="700" y="360" as="targetPoint" />
          </mxGeometry>
        </mxCell>
        <mxCell id="l9UlPoGd8hxk52ZTFXW5-24" value="numero == 0&amp;nbsp;" style="rhombus;whiteSpace=wrap;html=1;" parent="1" vertex="1">
          <mxGeometry x="610" y="366" width="180" height="150" as="geometry" />
        </mxCell>
        <mxCell id="l9UlPoGd8hxk52ZTFXW5-25" value="El número no es par ni impar." style="shape=document;whiteSpace=wrap;html=1;boundedLbl=1;" parent="1" vertex="1">
          <mxGeometry x="421" y="490" width="120" height="80" as="geometry" />
        </mxCell>
        <mxCell id="l9UlPoGd8hxk52ZTFXW5-26" value="" style="endArrow=classic;html=1;rounded=0;entryX=0.5;entryY=0;entryDx=0;entryDy=0;exitX=0;exitY=0.5;exitDx=0;exitDy=0;" parent="1" source="l9UlPoGd8hxk52ZTFXW5-24" target="l9UlPoGd8hxk52ZTFXW5-25" edge="1">
          <mxGeometry width="50" height="50" relative="1" as="geometry">
            <mxPoint x="740" y="560" as="sourcePoint" />
            <mxPoint x="790" y="510" as="targetPoint" />
            <Array as="points">
              <mxPoint x="481" y="441" />
            </Array>
          </mxGeometry>
        </mxCell>
        <mxCell id="l9UlPoGd8hxk52ZTFXW5-27" value="Fin" style="ellipse;whiteSpace=wrap;html=1;" parent="1" vertex="1">
          <mxGeometry x="421" y="610" width="120" height="80" as="geometry" />
        </mxCell>
        <mxCell id="l9UlPoGd8hxk52ZTFXW5-28" value="" style="endArrow=classic;html=1;rounded=0;exitX=0.483;exitY=0.863;exitDx=0;exitDy=0;exitPerimeter=0;entryX=0.5;entryY=0;entryDx=0;entryDy=0;" parent="1" source="l9UlPoGd8hxk52ZTFXW5-25" target="l9UlPoGd8hxk52ZTFXW5-27" edge="1">
          <mxGeometry width="50" height="50" relative="1" as="geometry">
            <mxPoint x="740" y="560" as="sourcePoint" />
            <mxPoint x="790" y="510" as="targetPoint" />
          </mxGeometry>
        </mxCell>
        <mxCell id="l9UlPoGd8hxk52ZTFXW5-29" value="numero % 2 == 0" style="rhombus;whiteSpace=wrap;html=1;" parent="1" vertex="1">
          <mxGeometry x="830" y="484" width="180" height="150" as="geometry" />
        </mxCell>
        <mxCell id="l9UlPoGd8hxk52ZTFXW5-30" value="" style="endArrow=classic;html=1;rounded=0;exitX=1;exitY=0.5;exitDx=0;exitDy=0;entryX=0.5;entryY=0;entryDx=0;entryDy=0;" parent="1" source="l9UlPoGd8hxk52ZTFXW5-24" target="l9UlPoGd8hxk52ZTFXW5-29" edge="1">
          <mxGeometry width="50" height="50" relative="1" as="geometry">
            <mxPoint x="740" y="560" as="sourcePoint" />
            <mxPoint x="790" y="510" as="targetPoint" />
            <Array as="points">
              <mxPoint x="920" y="441" />
            </Array>
          </mxGeometry>
        </mxCell>
        <mxCell id="l9UlPoGd8hxk52ZTFXW5-31" value="El número es par." style="shape=document;whiteSpace=wrap;html=1;boundedLbl=1;" parent="1" vertex="1">
          <mxGeometry x="690" y="600" width="120" height="80" as="geometry" />
        </mxCell>
        <mxCell id="l9UlPoGd8hxk52ZTFXW5-32" value="El número es impar." style="shape=document;whiteSpace=wrap;html=1;boundedLbl=1;" parent="1" vertex="1">
          <mxGeometry x="1020" y="600" width="120" height="80" as="geometry" />
        </mxCell>
        <mxCell id="l9UlPoGd8hxk52ZTFXW5-33" value="" style="endArrow=classic;html=1;rounded=0;exitX=0;exitY=0.5;exitDx=0;exitDy=0;entryX=0.5;entryY=0;entryDx=0;entryDy=0;" parent="1" source="l9UlPoGd8hxk52ZTFXW5-29" target="l9UlPoGd8hxk52ZTFXW5-31" edge="1">
          <mxGeometry width="50" height="50" relative="1" as="geometry">
            <mxPoint x="740" y="560" as="sourcePoint" />
            <mxPoint x="790" y="510" as="targetPoint" />
            <Array as="points">
              <mxPoint x="750" y="560" />
            </Array>
          </mxGeometry>
        </mxCell>
        <mxCell id="l9UlPoGd8hxk52ZTFXW5-34" value="" style="endArrow=classic;html=1;rounded=0;entryX=0.5;entryY=0;entryDx=0;entryDy=0;exitX=1;exitY=0.5;exitDx=0;exitDy=0;" parent="1" source="l9UlPoGd8hxk52ZTFXW5-29" target="l9UlPoGd8hxk52ZTFXW5-32" edge="1">
          <mxGeometry width="50" height="50" relative="1" as="geometry">
            <mxPoint x="740" y="560" as="sourcePoint" />
            <mxPoint x="790" y="510" as="targetPoint" />
            <Array as="points">
              <mxPoint x="1080" y="560" />
            </Array>
          </mxGeometry>
        </mxCell>
        <mxCell id="l9UlPoGd8hxk52ZTFXW5-35" value="Fin" style="ellipse;whiteSpace=wrap;html=1;" parent="1" vertex="1">
          <mxGeometry x="690" y="710" width="120" height="80" as="geometry" />
        </mxCell>
        <mxCell id="l9UlPoGd8hxk52ZTFXW5-36" value="Fin" style="ellipse;whiteSpace=wrap;html=1;" parent="1" vertex="1">
          <mxGeometry x="1020" y="700" width="120" height="80" as="geometry" />
        </mxCell>
        <mxCell id="l9UlPoGd8hxk52ZTFXW5-37" value="" style="endArrow=classic;html=1;rounded=0;entryX=0.5;entryY=0;entryDx=0;entryDy=0;" parent="1" target="l9UlPoGd8hxk52ZTFXW5-35" edge="1">
          <mxGeometry width="50" height="50" relative="1" as="geometry">
            <mxPoint x="750" y="670" as="sourcePoint" />
            <mxPoint x="790" y="510" as="targetPoint" />
          </mxGeometry>
        </mxCell>
        <mxCell id="l9UlPoGd8hxk52ZTFXW5-39" value="" style="endArrow=classic;html=1;rounded=0;entryX=0.5;entryY=0;entryDx=0;entryDy=0;" parent="1" edge="1">
          <mxGeometry width="50" height="50" relative="1" as="geometry">
            <mxPoint x="1082" y="670" as="sourcePoint" />
            <mxPoint x="1082" y="702" as="targetPoint" />
          </mxGeometry>
        </mxCell>
      </root>
    </mxGraphModel>
  </diagram>
</mxfile>
